<?xml version="1.0" standalone="no"?>
<!DOCTYPE svg PUBLIC "-//W3C//DTD SVG 20010904//EN"
 "http://www.w3.org/TR/2001/REC-SVG-20010904/DTD/svg10.dtd">
<svg version="1.0" xmlns="http://www.w3.org/2000/svg"
 width="400.000000pt" height="100.000000pt" viewBox="0 0 400.000000 100.000000"
 preserveAspectRatio="xMidYMid meet">

<g transform="translate(0.000000,100.000000) scale(0.100000,-0.100000)"
fill="#000000" stroke="none">
<path d="M1787 963 c-13 -13 -7 -64 8 -70 21 -7 33 6 16 16 -11 7 -11 10 0 14
12 4 11 7 -1 16 -10 7 -11 11 -2 11 6 0 12 5 12 10 0 11 -23 14 -33 3z"/>
<path d="M1977 963 c-13 -13 -7 -22 11 -16 16 6 16 5 0 -14 -24 -26 -23 -43 2
-43 11 0 20 5 20 10 0 6 -5 10 -11 10 -8 0 -8 5 1 15 20 24 -2 59 -23 38z"/>
<path d="M2032 958 c-17 -17 -15 -43 3 -58 21 -18 37 0 33 36 -3 31 -18 40
-36 22z m20 -40 c-9 -9 -12 -7 -12 12 0 19 3 21 12 12 9 -9 9 -15 0 -24z"/>
<path d="M2087 964 c-11 -11 -8 -62 3 -69 6 -4 17 -1 25 5 8 7 26 9 40 6 22
-6 25 -3 25 23 0 40 -17 48 -32 17 l-11 -26 -11 22 c-12 23 -28 32 -39 22z
m23 -36 c0 -16 -3 -19 -11 -11 -6 6 -8 16 -5 22 11 17 16 13 16 -11z"/>
<path d="M1886 951 c-11 -17 10 -54 32 -56 12 -1 22 2 22 7 0 4 -9 8 -21 8
-15 0 -19 4 -14 19 6 20 -9 38 -19 22z"/>
<path d="M1837 942 c-10 -15 0 -47 14 -47 17 0 19 47 2 52 -6 2 -14 0 -16 -5z"/>
<path d="M968 923 c133 -2 351 -2 485 0 133 1 24 2 -243 2 -267 0 -376 -1
-242 -2z"/>
<path d="M2498 923 c133 -2 351 -2 485 0 133 1 24 2 -243 2 -267 0 -376 -1
-242 -2z"/>
<path d="M2011 718 c-40 -55 -40 -68 3 -68 29 0 41 8 75 49 23 27 41 52 41 55
0 3 -20 6 -44 6 -40 0 -47 -4 -75 -42z"/>
<path d="M1037 736 c-84 -31 -106 -79 -107 -226 0 -90 3 -112 23 -150 29 -57
64 -82 124 -87 85 -7 168 61 161 132 -3 27 -7 30 -41 33 -34 3 -39 0 -48 -27
-18 -52 -93 -60 -118 -12 -15 28 -14 190 2 221 9 18 22 26 45 28 37 4 60 -11
73 -45 7 -19 16 -23 49 -23 39 0 40 1 40 33 0 91 -109 157 -203 123z"/>
<path d="M1760 737 c-38 -13 -80 -67 -80 -103 0 -18 -6 -23 -32 -26 -30 -3
-33 -6 -36 -40 -3 -35 -2 -37 30 -40 l33 -3 3 -122 3 -123 39 0 39 0 3 123 3
122 48 3 48 3 -3 37 c-3 37 -4 37 -50 40 -27 2 -48 6 -48 10 1 20 22 35 56 41
38 6 39 8 39 46 0 37 -2 40 -30 42 -16 1 -46 -3 -65 -10z"/>
<path d="M2295 728 c-11 -35 -115 -430 -115 -439 0 -6 20 -9 47 -7 45 3 47 4
57 43 l12 40 54 0 55 0 15 -42 c14 -42 16 -43 57 -43 33 0 43 4 43 17 0 19
-96 388 -110 421 -8 19 -17 22 -60 22 -32 0 -52 -5 -55 -12z m80 -205 l13 -63
-35 0 -36 0 7 43 c11 72 29 125 34 102 2 -11 10 -48 17 -82z"/>
<path d="M2857 723 c-4 -3 -7 -30 -7 -59 0 -52 0 -53 -32 -56 -30 -3 -33 -6
-36 -40 -3 -35 -2 -37 30 -40 l33 -3 5 -92 c5 -84 8 -95 32 -120 22 -22 39
-27 88 -31 l60 -4 0 41 c0 39 -2 41 -29 41 -57 0 -61 5 -61 91 l0 79 46 0 45
0 -3 38 c-3 36 -4 37 -45 40 l-43 3 0 48 c0 26 -5 52 -12 59 -13 13 -60 16
-71 5z"/>
<path d="M1405 610 c-61 -13 -105 -58 -92 -94 9 -23 59 -20 80 4 30 35 87 21
87 -22 0 -15 -9 -18 -61 -18 -54 0 -64 -3 -90 -29 -54 -54 -34 -144 38 -172
35 -13 74 -11 105 5 17 9 30 10 36 4 5 -5 20 -8 33 -6 23 3 24 6 27 108 3 114
-7 167 -38 195 -24 21 -84 33 -125 25z m85 -211 c0 -31 -22 -49 -61 -49 -41 0
-57 15 -45 45 6 18 106 22 106 4z"/>
<path d="M1982 609 c-69 -14 -102 -69 -102 -166 0 -82 21 -128 71 -155 41 -22
78 -23 124 -4 33 14 75 66 75 94 0 21 -73 15 -93 -8 -21 -25 -59 -26 -82 0
-34 38 -14 50 85 50 l90 0 0 45 c0 57 -21 110 -51 126 -36 19 -81 26 -117 18z
m80 -92 c15 -23 7 -27 -47 -27 -43 0 -55 3 -55 15 0 32 83 41 102 12z"/>
<path d="M2570 445 l0 -165 40 0 40 0 0 90 c0 49 5 100 11 113 13 28 48 47 84
47 22 0 25 4 25 40 0 37 -2 40 -28 40 -15 0 -44 -9 -64 -20 -37 -20 -37 -20
-48 0 -6 12 -21 20 -35 20 l-25 0 0 -165z"/>
<path d="M1328 108 c7 -7 13 -23 13 -37 l2 -26 4 25 c3 14 10 31 15 38 8 9 4
12 -18 12 -22 0 -25 -3 -16 -12z"/>
<path d="M1463 105 c-20 -23 -16 -55 7 -55 16 0 20 7 20 35 0 37 -7 43 -27 20z
m4 -37 c-3 -8 -6 -5 -6 6 -1 11 2 17 5 13 3 -3 4 -12 1 -19z"/>
<path d="M1551 90 c-1 -27 3 -36 17 -37 12 -1 17 6 17 23 0 15 -5 22 -12 20
-6 -3 -14 3 -16 12 -3 9 -5 1 -6 -18z"/>
<path d="M1651 85 c0 -37 1 -38 11 -15 l11 25 7 -25 8 -25 1 28 c1 17 -4 27
-13 27 -8 0 -17 6 -19 13 -3 6 -5 -6 -6 -28z"/>
<path d="M1780 85 c0 -19 5 -35 10 -35 6 0 10 16 10 35 0 19 -4 35 -10 35 -5
0 -10 -16 -10 -35z"/>
<path d="M1897 113 c-2 -5 -7 -20 -11 -34 -5 -24 -3 -27 19 -25 26 1 29 7 19
44 -6 22 -19 29 -27 15z"/>
<path d="M2543 85 c0 -22 2 -30 4 -17 2 12 2 30 0 40 -3 9 -5 -1 -4 -23z"/>
<path d="M2573 85 c0 -22 2 -30 4 -17 2 12 2 30 0 40 -3 9 -5 -1 -4 -23z"/>
<path d="M1370 76 c0 -20 5 -26 21 -26 15 0 20 5 17 22 -5 34 -38 37 -38 4z"/>
<path d="M1420 75 c0 -15 4 -24 10 -20 6 3 10 12 10 20 0 8 -4 17 -10 20 -6 4
-10 -5 -10 -20z"/>
<path d="M1500 75 c0 -18 5 -25 20 -25 15 0 20 7 20 25 0 18 -5 25 -20 25 -15
0 -20 -7 -20 -25z"/>
<path d="M1600 76 c0 -20 5 -26 21 -26 15 0 20 5 17 22 -5 34 -38 37 -38 4z"/>
<path d="M1705 80 c9 -31 11 -33 23 -26 13 8 22 46 11 46 -5 0 -9 -5 -9 -11 0
-8 -6 -7 -16 2 -15 12 -16 11 -9 -11z"/>
<path d="M1762 75 c0 -16 2 -22 5 -12 2 9 2 23 0 30 -3 6 -5 -1 -5 -18z"/>
<path d="M1810 75 c0 -18 5 -25 20 -25 15 0 20 7 20 25 0 18 -5 25 -20 25 -15
0 -20 -7 -20 -25z"/>
<path d="M1941 78 c-1 -22 4 -28 19 -28 15 0 20 6 19 28 l-1 27 -8 -25 -7 -25
-11 25 -11 25 0 -27z"/>
<path d="M1993 84 c-3 -8 -1 -20 6 -27 8 -8 11 -5 11 11 0 12 5 22 10 22 6 0
10 -9 10 -20 0 -13 7 -20 20 -20 15 0 20 7 20 25 0 22 -4 25 -35 25 -23 0 -38
-6 -42 -16z"/>
<path d="M2078 65 c-2 -22 0 -34 6 -32 14 4 21 67 8 67 -6 0 -12 -16 -14 -35z"/>
<path d="M2110 75 c0 -18 5 -25 20 -25 15 0 20 7 20 25 0 18 -5 25 -20 25 -15
0 -20 -7 -20 -25z m30 -5 c0 -5 -4 -10 -10 -10 -5 0 -10 5 -10 10 0 6 5 10 10
10 6 0 10 -4 10 -10z"/>
<path d="M2164 85 c-7 -18 3 -35 22 -35 8 0 14 10 14 25 0 27 -27 35 -36 10z"/>
<path d="M2210 75 c0 -31 17 -33 23 -2 l4 22 2 -22 c1 -21 21 -34 21 -14 0 23
-14 41 -31 41 -14 0 -19 -7 -19 -25z"/>
<path d="M2291 73 c0 -16 3 -22 6 -13 3 8 10 21 16 28 7 8 5 12 -7 12 -11 0
-16 -8 -15 -27z"/>
<path d="M2327 81 c-6 -24 0 -31 25 -31 14 0 19 6 16 22 -4 29 -34 36 -41 9z"/>
<path d="M2381 73 c1 -17 3 -21 6 -10 2 9 8 17 13 17 5 0 11 -8 13 -17 3 -11
5 -7 6 10 1 21 -4 27 -19 27 -15 0 -20 -6 -19 -27z"/>
<path d="M2430 75 c0 -31 20 -33 21 -2 1 21 1 21 9 -3 l8 -25 1 28 c1 21 -4
27 -19 27 -15 0 -20 -7 -20 -25z"/>
<path d="M2487 81 c-6 -24 0 -31 25 -31 14 0 19 6 16 22 -4 29 -34 36 -41 9z"/>
<path d="M2596 84 c-10 -26 -7 -34 14 -34 15 0 20 7 20 25 0 28 -24 34 -34 9z"/>
<path d="M827 73 c79 -2 207 -2 285 0 79 1 15 3 -142 3 -157 0 -221 -2 -143
-3z"/>
<path d="M2838 73 c78 -2 206 -2 285 0 78 1 14 3 -143 3 -157 0 -221 -2 -142
-3z"/>
</g>
</svg>
