<svg width="16" height="16" viewBox="0 0 16 16" fill="none" xmlns="http://www.w3.org/2000/svg">
<path d="M1.7304 12.8554C1.33987 13.2459 1.33987 13.8791 1.7304 14.2696C2.12092 14.6602 2.75409 14.6602 3.14461 14.2696L1.7304 12.8554ZM14.5625 2.43751C14.5625 1.88523 14.1148 1.43751 13.5625 1.43751L4.5626 1.4375C4.01031 1.4375 3.5626 1.88521 3.5626 2.4375C3.5626 2.98978 4.01031 3.4375 4.56259 3.4375L12.5625 3.43751V11.4375C12.5625 11.9898 13.0102 12.4375 13.5625 12.4375C14.1148 12.4375 14.5625 11.9898 14.5625 11.4375V2.43751ZM3.14461 14.2696L14.2697 3.14462L12.8554 1.7304L1.7304 12.8554L3.14461 14.2696Z" fill="#242525"/>
</svg>
