<svg width="362" height="108" viewBox="0 0 362 108" fill="none" xmlns="http://www.w3.org/2000/svg">
<path d="M13.3 97.9C11.1667 102.633 8.53333 105 5.4 105C4 105 2.36667 104.767 0.5 104.3V103.5C2.03333 103.9 3.4 104.1 4.6 104.1C8 104.1 10.6 102.033 12.4 97.9L20.8 80H20.7L2.1 30H9.1L24.6 71.7L39.9 40C40.7 38.6 41.1 36.9333 41.1 35C41.1 33.0667 40.5667 31.6 39.5 30.6L40.1 30C40.3667 30.1333 40.7 30.5333 41.1 31.2C41.5667 31.8667 41.8333 32.4667 41.9 33C42.0333 33.5333 42.1 34.0333 42.1 34.5C42.1 36.3 41.7 38.1333 40.9 40L21.7 80L13.3 97.9ZM71.3797 80.4C64.3797 80.4 58.6797 78.4 54.2797 74.4C49.8797 70.4 47.6797 64.2333 47.6797 55.9C47.6797 47.5667 49.9464 41.1 54.4797 36.5C59.0797 31.9 64.8797 29.6 71.8797 29.6C78.9464 29.6 84.6797 31.6 89.0797 35.6C93.4797 39.6 95.6797 45.7667 95.6797 54.1C95.6797 62.4333 93.3797 68.9 88.7797 73.5C84.2464 78.1 78.4464 80.4 71.3797 80.4ZM72.0797 30.4C67.013 30.4 62.813 32.6667 59.4797 37.2C56.1464 41.6667 54.4797 47.9333 54.4797 56C54.4797 64 56.013 69.9333 59.0797 73.8C62.1464 77.6667 66.213 79.6 71.2797 79.6C76.3464 79.6 80.5464 77.3667 83.8797 72.9C87.213 68.3667 88.8797 62.1 88.8797 54.1C88.8797 46.0333 87.3464 40.0667 84.2797 36.2C81.213 32.3333 77.1464 30.4 72.0797 30.4ZM110.637 68.5C110.637 73.7667 112.037 77.1333 114.837 78.6C116.17 79.2667 117.87 79.6 119.937 79.6C124.137 79.6 127.87 78 131.137 74.8C134.47 71.6 136.27 68.6333 136.537 65.9V30H143.537V72.9C143.537 74.8333 143.903 76.3333 144.637 77.4C145.437 78.4 146.237 78.9333 147.037 79L148.137 79.2H151.237V80H145.137C142.403 80 140.303 79.4 138.837 78.2C137.437 77 136.703 75.8 136.637 74.6L136.537 72.9V68.6C135.337 71.4667 133.203 74.1667 130.137 76.7C127.07 79.1667 123.703 80.4 120.037 80.4C116.437 80.4 113.47 80.0667 111.137 79.4C108.87 78.6667 107.237 77.6667 106.237 76.4C104.503 74.3333 103.637 71.6667 103.637 68.4V30H110.637V68.5ZM175.373 34.3V32.2C172.373 33.4 169.64 35.8333 167.173 39.5C164.707 43.1 163.407 46.5 163.273 49.7V80H156.273V30H163.273V45.9C164.34 42.0333 166.373 38.4 169.373 35C172.373 31.5333 175.773 29.7333 179.573 29.6H179.973C181.307 29.6 182.407 30.0667 183.273 31C184.207 31.8667 184.673 32.9667 184.673 34.3C184.673 35.6333 184.207 36.7333 183.273 37.6C182.407 38.4667 181.307 38.9 179.973 38.9C178.64 38.9 177.54 38.4667 176.673 37.6C175.807 36.7333 175.373 35.6333 175.373 34.3Z" fill="#FFF9EC"/>
<path d="M224.357 81.272C223.156 81.272 222.025 80.8833 220.965 80.106C219.976 79.3287 219.481 78.1627 219.481 76.608C219.481 75.972 219.552 75.1947 219.693 74.276C219.834 73.3573 220.082 71.9793 220.435 70.142L230.081 23.502C230.505 21.594 230.894 19.4033 231.247 16.93C231.671 14.4567 232.06 12.0187 232.413 9.616C232.766 7.14266 233.049 4.952 233.261 3.044L240.151 1.136L240.999 1.98399L227.219 68.658C227.007 69.7887 226.795 70.8133 226.583 71.732C226.442 72.58 226.371 73.2867 226.371 73.852C226.371 74.488 226.548 74.9827 226.901 75.336C227.325 75.6893 227.784 75.866 228.279 75.866C229.339 75.866 230.717 75.23 232.413 73.958C234.18 72.686 235.982 70.99 237.819 68.87L239.091 69.93C238.031 71.6967 236.759 73.4633 235.275 75.23C233.862 76.9967 232.236 78.4453 230.399 79.576C228.632 80.7067 226.618 81.272 224.357 81.272ZM178.353 107.454C176.94 107.454 175.597 107.277 174.325 106.924C173.053 106.571 171.993 106.005 171.145 105.228C170.297 104.521 169.696 103.567 169.343 102.366C169.555 101.235 170.191 100.352 171.251 99.716C172.24 99.1507 173.3 98.868 174.431 98.868C175.491 98.868 176.41 99.0093 177.187 99.292C177.964 99.6453 178.742 100.105 179.519 100.67C180.226 101.235 180.968 101.942 181.745 102.79L183.865 104.91V105.334H182.593V104.91C183.794 104.203 184.89 103.285 185.879 102.154C186.868 101.023 187.752 99.7867 188.529 98.444C189.73 96.324 190.72 93.992 191.497 91.448C192.274 88.904 192.91 86.3953 193.405 83.922C193.9 81.4487 194.288 79.258 194.571 77.35C195.843 69.294 197.115 61.238 198.387 53.182C199.659 45.0553 200.896 36.9287 202.097 28.802C203.016 23.078 204.358 18.3787 206.125 14.704C207.892 10.9587 209.835 8.026 211.955 5.90599C214.146 3.71533 216.301 2.196 218.421 1.348C220.612 0.499998 222.52 0.0759991 224.145 0.0759991C225.912 0.0759991 227.608 0.323331 229.233 0.817996C230.858 1.31266 232.201 2.05467 233.261 3.044C234.392 3.96266 235.063 5.12866 235.275 6.542C235.063 7.67266 234.568 8.48533 233.791 8.98C233.084 9.404 232.342 9.616 231.565 9.616C230.434 9.616 229.445 9.26266 228.597 8.556C227.749 7.84933 226.76 6.93066 225.629 5.79999L221.707 1.56V1.02999H223.191V1.45399C221.707 1.94866 220.223 2.832 218.739 4.104C217.326 5.376 215.983 7.10733 214.711 9.29799C213.439 11.418 212.273 14.068 211.213 17.248C210.224 20.428 209.376 24.2087 208.669 28.59C207.397 36.7167 206.125 44.8433 204.853 52.97C203.581 61.0967 202.309 69.2233 201.037 77.35C200.613 80.0353 199.977 82.7913 199.129 85.618C198.281 88.4447 197.186 91.13 195.843 93.674C194.571 96.2887 193.087 98.6207 191.391 100.67C190.26 102.013 189.024 103.179 187.681 104.168C186.268 105.228 184.819 106.041 183.335 106.606C181.78 107.171 180.12 107.454 178.353 107.454ZM191.815 34.632V32.936L204.111 31.452V32.088H221.707L221.177 34.632H203.263H191.815ZM261.22 81.272C258.323 81.272 255.673 80.6007 253.27 79.258C250.867 77.9153 248.959 75.9013 247.546 73.216C246.133 70.46 245.426 67.068 245.426 63.04C245.426 58.8 246.027 54.772 247.228 50.956C248.429 47.0693 250.125 43.6067 252.316 40.568C254.507 37.5293 257.086 35.162 260.054 33.466C263.022 31.6993 266.237 30.816 269.7 30.816C272.597 30.816 275.247 31.4873 277.65 32.83C280.053 34.1727 281.961 36.1867 283.374 38.872C284.858 41.5573 285.6 44.9493 285.6 49.048C285.6 53.288 284.999 57.3513 283.798 61.238C282.597 65.054 280.901 68.4813 278.71 71.52C276.519 74.5587 273.94 76.9613 270.972 78.728C268.004 80.424 264.753 81.272 261.22 81.272ZM261.22 79.152C263.057 79.152 264.824 78.6573 266.52 77.668C268.287 76.608 269.877 75.124 271.29 73.216C272.774 71.308 274.081 69.082 275.212 66.538C276.343 63.994 277.191 61.1673 277.756 58.058C278.392 54.9487 278.71 51.698 278.71 48.306C278.71 43.2887 277.968 39.4727 276.484 36.858C275.071 34.2433 272.809 32.936 269.7 32.936C267.863 32.936 266.061 33.466 264.294 34.526C262.598 35.5153 261.008 36.964 259.524 38.872C258.111 40.78 256.839 43.006 255.708 45.55C254.648 48.094 253.8 50.9207 253.164 54.03C252.599 57.0687 252.316 60.284 252.316 63.676C252.316 68.6933 253.023 72.5447 254.436 75.23C255.92 77.8447 258.181 79.152 261.22 79.152ZM305.337 80C305.266 75.972 305.16 72.2267 305.019 68.764C304.877 65.3013 304.701 62.0507 304.489 59.012C304.347 55.9027 304.135 52.9347 303.853 50.108C303.641 47.2813 303.358 44.5253 303.005 41.84C302.722 39.5787 302.333 38.0947 301.839 37.388C301.344 36.6107 300.743 36.222 300.037 36.222C299.118 36.222 298.129 36.752 297.069 37.812C296.079 38.872 294.631 40.9567 292.723 44.066L291.451 43.112C293.147 39.084 294.843 36.0453 296.539 33.996C298.235 31.876 300.284 30.816 302.687 30.816C304.736 30.816 306.255 31.452 307.245 32.724C308.234 33.996 308.941 36.0807 309.365 38.978C309.859 42.0873 310.248 45.656 310.531 49.684C310.813 53.712 311.025 57.8813 311.167 62.192C311.379 66.5027 311.485 70.7073 311.485 74.806H310.213L310.425 74.488C313.11 70.672 315.725 66.5027 318.269 61.98C320.883 57.3867 323.357 52.5813 325.689 47.564C328.021 42.476 330.141 37.3173 332.049 32.088H335.971C336.112 35.692 336.253 39.296 336.395 42.9C336.607 46.504 336.783 50.108 336.925 53.712C337.066 57.316 337.207 60.92 337.349 64.524C337.49 68.0573 337.631 71.626 337.773 75.23H336.183L336.395 74.806C338.727 72.05 341.023 69.2233 343.285 66.326C345.546 63.358 347.631 60.3547 349.539 57.316C351.517 54.2067 353.178 51.062 354.521 47.882C354.874 47.246 355.157 46.5747 355.369 45.868C355.651 45.1613 355.899 44.4547 356.111 43.748L355.793 48.518L354.839 45.02C354.485 43.3947 354.203 42.052 353.991 40.992C353.779 39.8613 353.637 38.9427 353.567 38.236C353.567 37.4587 353.567 36.8227 353.567 36.328C353.567 34.208 353.955 32.7593 354.733 31.982C355.581 31.2047 356.57 30.816 357.701 30.816C358.478 30.816 359.114 30.9573 359.609 31.24C360.174 31.452 360.633 31.7347 360.987 32.088C361.128 32.512 361.234 32.936 361.305 33.36C361.375 33.784 361.411 34.2787 361.411 34.844C361.411 36.4693 361.093 38.1653 360.457 39.932C359.891 41.6987 359.22 43.3593 358.443 44.914C357.736 46.398 357.171 47.6347 356.747 48.624C355.828 50.8853 354.591 53.288 353.037 55.832C351.553 58.376 349.821 61.026 347.843 63.782C345.935 66.4673 343.815 69.188 341.483 71.944C339.221 74.7 336.819 77.3853 334.275 80L331.731 80.424L331.307 80C331.165 76.7493 331.024 73.4987 330.883 70.248C330.741 66.9973 330.6 63.782 330.459 60.602C330.388 57.3513 330.282 54.136 330.141 50.956C329.999 47.7053 329.858 44.4547 329.717 41.204L331.095 40.568L330.565 42.158C329.646 44.5607 328.445 47.352 326.961 50.532C325.477 53.712 323.745 57.0333 321.767 60.496C319.859 63.9587 317.774 67.386 315.513 70.778C313.251 74.0993 310.884 77.1733 308.411 80L305.761 80.424L305.337 80Z" fill="#FF3227"/>
</svg>
